name ./resultDataOpenSim/trcMotMarkerGrf/sub09/grf-13-03.mot
datacolumns 19
datarows 12
range 1.52800000 1.57200000
endheader

                time	     ground_force_vx	     ground_force_vy	     ground_force_vz	     ground_force_px	     ground_force_py	     ground_force_pz	   l_ground_force_vx	   l_ground_force_vy	   l_ground_force_vz	   l_ground_force_px	   l_ground_force_py	   l_ground_force_pz	     ground_torque_x	     ground_torque_y	     ground_torque_z	   l_ground_torque_x	   l_ground_torque_y	   l_ground_torque_z	
          1.52800000	        -28.92591916	        428.26722742	         -7.16599672	          0.98782115	          0.00000000	          0.03700851	          0.00000000	          0.00000000	          0.00000000	          0.00000000	          0.00000000	          0.00000000	          0.00000000	          2.31776489	          0.00000000	          0.00000000	          0.00000000	          0.00000000	
          1.53200000	        -25.07598276	        426.37125928	         -8.99578623	          0.98767447	          0.00000000	          0.03698503	          0.00000000	          0.00000000	          0.00000000	          0.00000000	          0.00000000	          0.00000000	          0.00000000	          2.27189629	          0.00000000	          0.00000000	          0.00000000	          0.00000000	
          1.53600000	        -22.49280417	        424.89855941	        -10.30279228	          0.98770221	          0.00000000	          0.03695453	          0.00000000	          0.00000000	          0.00000000	          0.00000000	          0.00000000	          0.00000000	          0.00000000	          2.25591476	          0.00000000	          0.00000000	          0.00000000	          0.00000000	
          1.54000000	        -21.53686374	        423.89011389	        -10.90487083	          0.98796442	          0.00000000	          0.03689453	          0.00000000	          0.00000000	          0.00000000	          0.00000000	          0.00000000	          0.00000000	          0.00000000	          2.28326114	          0.00000000	          0.00000000	          0.00000000	          0.00000000	
          1.54400000	        -22.12340013	        423.36687328	        -10.75384380	          0.98844335	          0.00000000	          0.03679076	          0.00000000	          0.00000000	          0.00000000	          0.00000000	          0.00000000	          0.00000000	          0.00000000	          2.35760326	          0.00000000	          0.00000000	          0.00000000	          0.00000000	
          1.54800000	        -23.76394082	        423.32949182	         -9.93671001	          0.98905678	          0.00000000	          0.03664711	          0.00000000	          0.00000000	          0.00000000	          0.00000000	          0.00000000	          0.00000000	          0.00000000	          2.47266917	          0.00000000	          0.00000000	          0.00000000	          0.00000000	
          1.55200000	        -25.71008483	        423.77350287	         -8.66266662	          0.98968424	          0.00000000	          0.03648506	          0.00000000	          0.00000000	          0.00000000	          0.00000000	          0.00000000	          0.00000000	          0.00000000	          2.61408544	          0.00000000	          0.00000000	          0.00000000	          0.00000000	
          1.55600000	        -27.15381600	        424.70638012	         -7.23394572	          0.99019570	          0.00000000	          0.03633431	          0.00000000	          0.00000000	          0.00000000	          0.00000000	          0.00000000	          0.00000000	          0.00000000	          2.76285864	          0.00000000	          0.00000000	          0.00000000	          0.00000000	
          1.56000000	        -27.43993737	        426.14475659	         -5.98852382	          0.99048166	          0.00000000	          0.03621871	          0.00000000	          0.00000000	          0.00000000	          0.00000000	          0.00000000	          0.00000000	          0.00000000	          2.89975047	          0.00000000	          0.00000000	          0.00000000	          0.00000000	
          1.56400000	        -26.23612443	        428.09924655	         -5.22943186	          0.99048529	          0.00000000	          0.03614923	          0.00000000	          0.00000000	          0.00000000	          0.00000000	          0.00000000	          0.00000000	          0.00000000	          3.00956193	          0.00000000	          0.00000000	          0.00000000	          0.00000000	
          1.56800000	        -23.60286093	        430.57376774	         -5.17064423	          0.99022747	          0.00000000	          0.03612639	          0.00000000	          0.00000000	          0.00000000	          0.00000000	          0.00000000	          0.00000000	          0.00000000	          3.08437024	          0.00000000	          0.00000000	          0.00000000	          0.00000000	
          1.57200000	        -19.94956990	        433.57871855	         -5.90332248	          0.98979506	          0.00000000	          0.03614372	          0.00000000	          0.00000000	          0.00000000	          0.00000000	          0.00000000	          0.00000000	          0.00000000	          3.12503423	          0.00000000	          0.00000000	          0.00000000	          0.00000000	
